<svg id="visual" viewBox="0 0 900 600" width="900" height="600" xmlns="http://www.w3.org/2000/svg" xmlns:xlink="http://www.w3.org/1999/xlink" version="1.1"><rect x="0" y="0" width="900" height="600" fill="#001220"></rect><defs><linearGradient id="grad1_0" x1="33.3%" y1="0%" x2="100%" y2="100%"><stop offset="20%" stop-color="#001220" stop-opacity="1"></stop><stop offset="80%" stop-color="#001220" stop-opacity="1"></stop></linearGradient></defs><defs><linearGradient id="grad2_0" x1="0%" y1="0%" x2="66.7%" y2="100%"><stop offset="20%" stop-color="#001220" stop-opacity="1"></stop><stop offset="80%" stop-color="#001220" stop-opacity="1"></stop></linearGradient></defs><g transform="translate(900, 0)"><path d="M0 486.7C-72 488.7 -143.9 490.6 -186.3 449.7C-228.6 408.8 -241.4 325.2 -274.4 274.4C-307.3 223.5 -360.4 205.6 -399.1 165.3C-437.9 125.1 -462.3 62.5 -486.7 0L0 0Z" fill="#FCAF3C"></path></g><g transform="translate(0, 600)"><path d="M0 -486.7C45.2 -437.8 90.4 -388.9 154.6 -373.2C218.8 -357.6 302 -375.3 344.2 -344.2C386.4 -313.1 387.7 -233.1 404.7 -167.6C421.6 -102.1 454.2 -51.1 486.7 0L0 0Z" fill="#FCAF3C"></path></g></svg>