<svg id="visual" viewBox="0 0 900 600" width="900" height="600" xmlns="http://www.w3.org/2000/svg" xmlns:xlink="http://www.w3.org/1999/xlink" version="1.1"><rect x="0" y="0" width="900" height="600" fill="#170f22"></rect><path d="M0 379L21.5 376.7C43 374.3 86 369.7 128.8 376C171.7 382.3 214.3 399.7 257.2 407.3C300 415 343 413 385.8 402.3C428.7 391.7 471.3 372.3 514.2 372.7C557 373 600 393 642.8 397.7C685.7 402.3 728.3 391.7 771.2 395.8C814 400 857 419 878.5 428.5L900 438L900 601L878.5 601C857 601 814 601 771.2 601C728.3 601 685.7 601 642.8 601C600 601 557 601 514.2 601C471.3 601 428.7 601 385.8 601C343 601 300 601 257.2 601C214.3 601 171.7 601 128.8 601C86 601 43 601 21.5 601L0 601Z" fill="#715df2"></path><path d="M0 405L21.5 411.8C43 418.7 86 432.3 128.8 432.3C171.7 432.3 214.3 418.7 257.2 412.3C300 406 343 407 385.8 418C428.7 429 471.3 450 514.2 454.3C557 458.7 600 446.3 642.8 445.3C685.7 444.3 728.3 454.7 771.2 457.8C814 461 857 457 878.5 455L900 453L900 601L878.5 601C857 601 814 601 771.2 601C728.3 601 685.7 601 642.8 601C600 601 557 601 514.2 601C471.3 601 428.7 601 385.8 601C343 601 300 601 257.2 601C214.3 601 171.7 601 128.8 601C86 601 43 601 21.5 601L0 601Z" fill="#c548cf"></path><path d="M0 508L21.5 497.8C43 487.7 86 467.3 128.8 467.8C171.7 468.3 214.3 489.7 257.2 496.2C300 502.7 343 494.3 385.8 492.8C428.7 491.3 471.3 496.7 514.2 494.7C557 492.7 600 483.3 642.8 484.3C685.7 485.3 728.3 496.7 771.2 498.8C814 501 857 494 878.5 490.5L900 487L900 601L878.5 601C857 601 814 601 771.2 601C728.3 601 685.7 601 642.8 601C600 601 557 601 514.2 601C471.3 601 428.7 601 385.8 601C343 601 300 601 257.2 601C214.3 601 171.7 601 128.8 601C86 601 43 601 21.5 601L0 601Z" fill="#ef40a6"></path><path d="M0 491L21.5 490.3C43 489.7 86 488.3 128.8 495C171.7 501.7 214.3 516.3 257.2 522.7C300 529 343 527 385.8 522.8C428.7 518.7 471.3 512.3 514.2 513.7C557 515 600 524 642.8 528.3C685.7 532.7 728.3 532.3 771.2 524.7C814 517 857 502 878.5 494.5L900 487L900 601L878.5 601C857 601 814 601 771.2 601C728.3 601 685.7 601 642.8 601C600 601 557 601 514.2 601C471.3 601 428.7 601 385.8 601C343 601 300 601 257.2 601C214.3 601 171.7 601 128.8 601C86 601 43 601 21.5 601L0 601Z" fill="#ff517f"></path><path d="M0 574L21.5 567C43 560 86 546 128.8 542.5C171.7 539 214.3 546 257.2 548.7C300 551.3 343 549.7 385.8 552.7C428.7 555.7 471.3 563.3 514.2 564.3C557 565.3 600 559.7 642.8 559C685.7 558.3 728.3 562.7 771.2 561C814 559.3 857 551.7 878.5 547.8L900 544L900 601L878.5 601C857 601 814 601 771.2 601C728.3 601 685.7 601 642.8 601C600 601 557 601 514.2 601C471.3 601 428.7 601 385.8 601C343 601 300 601 257.2 601C214.3 601 171.7 601 128.8 601C86 601 43 601 21.5 601L0 601Z" fill="#ff6f61"></path></svg>