<svg id="visual" viewBox="0 0 900 600" width="900" height="600" xmlns="http://www.w3.org/2000/svg" xmlns:xlink="http://www.w3.org/1999/xlink" version="1.1"><g stroke-width="1" stroke-linejoin="bevel"><path d="M461 309L470 203L419 278Z" fill="#246688" stroke="#246688"></path><path d="M470 203L366 236L419 278Z" fill="#0c2435" stroke="#0c2435"></path><path d="M461 309L581 298L470 203Z" fill="#112e42" stroke="#112e42"></path><path d="M380 390L474 379L461 309Z" fill="#112e42" stroke="#112e42"></path><path d="M461 309L474 379L581 298Z" fill="#297ea6" stroke="#297ea6"></path><path d="M380 390L461 309L419 278Z" fill="#277297" stroke="#277297"></path><path d="M581 298L609 214L470 203Z" fill="#081a28" stroke="#081a28"></path><path d="M404 65L319 214L366 236Z" fill="#00101c" stroke="#00101c"></path><path d="M301 307L380 390L419 278Z" fill="#0c2435" stroke="#0c2435"></path><path d="M301 307L419 278L366 236Z" fill="#297ea6" stroke="#297ea6"></path><path d="M319 214L301 307L366 236Z" fill="#19435d" stroke="#19435d"></path><path d="M474 379L618 362L581 298Z" fill="#1d4e6b" stroke="#1d4e6b"></path><path d="M581 298L679 303L609 214Z" fill="#277297" stroke="#277297"></path><path d="M599 107L493 64L470 203Z" fill="#297ea6" stroke="#297ea6"></path><path d="M470 203L404 65L366 236Z" fill="#112e42" stroke="#112e42"></path><path d="M609 214L599 107L470 203Z" fill="#15384f" stroke="#15384f"></path><path d="M493 64L404 65L470 203Z" fill="#205a7a" stroke="#205a7a"></path><path d="M618 362L679 303L581 298Z" fill="#081a28" stroke="#081a28"></path><path d="M609 214L678 136L599 107Z" fill="#297ea6" stroke="#297ea6"></path><path d="M375 497L539 474L474 379Z" fill="#1d4e6b" stroke="#1d4e6b"></path><path d="M474 379L539 474L618 362Z" fill="#205a7a" stroke="#205a7a"></path><path d="M618 362L677 368L679 303Z" fill="#00101c" stroke="#00101c"></path><path d="M404 65L302 90L319 214Z" fill="#15384f" stroke="#15384f"></path><path d="M319 214L210 291L301 307Z" fill="#297ea6" stroke="#297ea6"></path><path d="M567 482L677 368L618 362Z" fill="#297ea6" stroke="#297ea6"></path><path d="M733 195L678 136L609 214Z" fill="#1d4e6b" stroke="#1d4e6b"></path><path d="M604 0L512 0L493 64Z" fill="#081a28" stroke="#081a28"></path><path d="M539 474L567 482L618 362Z" fill="#246688" stroke="#246688"></path><path d="M321 477L375 497L380 390Z" fill="#0c2435" stroke="#0c2435"></path><path d="M380 390L375 497L474 379Z" fill="#112e42" stroke="#112e42"></path><path d="M539 474L519 600L567 482Z" fill="#205a7a" stroke="#205a7a"></path><path d="M197 221L210 291L319 214Z" fill="#277297" stroke="#277297"></path><path d="M301 307L270 430L380 390Z" fill="#277297" stroke="#277297"></path><path d="M604 0L493 64L599 107Z" fill="#1d4e6b" stroke="#1d4e6b"></path><path d="M493 64L410 0L404 65Z" fill="#081a28" stroke="#081a28"></path><path d="M404 65L317 0L302 90Z" fill="#00101c" stroke="#00101c"></path><path d="M512 0L410 0L493 64Z" fill="#246688" stroke="#246688"></path><path d="M210 291L270 430L301 307Z" fill="#1d4e6b" stroke="#1d4e6b"></path><path d="M270 430L321 477L380 390Z" fill="#00101c" stroke="#00101c"></path><path d="M776 324L733 195L679 303Z" fill="#112e42" stroke="#112e42"></path><path d="M679 303L733 195L609 214Z" fill="#297ea6" stroke="#297ea6"></path><path d="M221 109L197 221L319 214Z" fill="#205a7a" stroke="#205a7a"></path><path d="M302 90L221 109L319 214Z" fill="#00101c" stroke="#00101c"></path><path d="M206 0L221 109L302 90Z" fill="#277297" stroke="#277297"></path><path d="M695 0L599 107L678 136Z" fill="#0c2435" stroke="#0c2435"></path><path d="M695 0L604 0L599 107Z" fill="#081a28" stroke="#081a28"></path><path d="M410 0L317 0L404 65Z" fill="#081a28" stroke="#081a28"></path><path d="M677 368L776 324L679 303Z" fill="#0c2435" stroke="#0c2435"></path><path d="M802 377L776 324L677 368Z" fill="#277297" stroke="#277297"></path><path d="M99 307L178 420L210 291Z" fill="#246688" stroke="#246688"></path><path d="M210 291L178 420L270 430Z" fill="#112e42" stroke="#112e42"></path><path d="M168 535L279 600L321 477Z" fill="#277297" stroke="#277297"></path><path d="M570 600L682 519L567 482Z" fill="#19435d" stroke="#19435d"></path><path d="M567 482L682 519L677 368Z" fill="#1d4e6b" stroke="#1d4e6b"></path><path d="M767 63L695 0L678 136Z" fill="#19435d" stroke="#19435d"></path><path d="M767 63L678 136L733 195Z" fill="#15384f" stroke="#15384f"></path><path d="M279 600L427 600L375 497Z" fill="#112e42" stroke="#112e42"></path><path d="M375 497L427 600L539 474Z" fill="#0c2435" stroke="#0c2435"></path><path d="M279 600L375 497L321 477Z" fill="#205a7a" stroke="#205a7a"></path><path d="M427 600L519 600L539 474Z" fill="#15384f" stroke="#15384f"></path><path d="M682 519L802 377L677 368Z" fill="#297ea6" stroke="#297ea6"></path><path d="M832 199L767 63L733 195Z" fill="#277297" stroke="#277297"></path><path d="M832 199L733 195L776 324Z" fill="#15384f" stroke="#15384f"></path><path d="M519 600L570 600L567 482Z" fill="#15384f" stroke="#15384f"></path><path d="M317 0L206 0L302 90Z" fill="#0c2435" stroke="#0c2435"></path><path d="M221 109L121 128L197 221Z" fill="#15384f" stroke="#15384f"></path><path d="M197 221L99 307L210 291Z" fill="#00101c" stroke="#00101c"></path><path d="M900 278L832 199L776 324Z" fill="#0c2435" stroke="#0c2435"></path><path d="M129 0L121 128L221 109Z" fill="#15384f" stroke="#15384f"></path><path d="M77 235L99 307L197 221Z" fill="#246688" stroke="#246688"></path><path d="M121 128L77 235L197 221Z" fill="#081a28" stroke="#081a28"></path><path d="M168 535L270 430L178 420Z" fill="#19435d" stroke="#19435d"></path><path d="M168 535L321 477L270 430Z" fill="#297ea6" stroke="#297ea6"></path><path d="M0 399L113 432L99 307Z" fill="#19435d" stroke="#19435d"></path><path d="M99 307L113 432L178 420Z" fill="#246688" stroke="#246688"></path><path d="M113 432L122 463L178 420Z" fill="#205a7a" stroke="#205a7a"></path><path d="M122 463L168 535L178 420Z" fill="#246688" stroke="#246688"></path><path d="M0 136L0 216L77 235Z" fill="#00101c" stroke="#00101c"></path><path d="M206 0L129 0L221 109Z" fill="#15384f" stroke="#15384f"></path><path d="M168 535L213 600L279 600Z" fill="#19435d" stroke="#19435d"></path><path d="M682 519L818 516L802 377Z" fill="#15384f" stroke="#15384f"></path><path d="M570 600L724 600L682 519Z" fill="#0c2435" stroke="#0c2435"></path><path d="M900 78L814 0L767 63Z" fill="#15384f" stroke="#15384f"></path><path d="M767 63L814 0L695 0Z" fill="#246688" stroke="#246688"></path><path d="M802 377L900 278L776 324Z" fill="#277297" stroke="#277297"></path><path d="M832 199L900 78L767 63Z" fill="#081a28" stroke="#081a28"></path><path d="M900 436L900 278L802 377Z" fill="#205a7a" stroke="#205a7a"></path><path d="M900 278L900 199L832 199Z" fill="#19435d" stroke="#19435d"></path><path d="M724 600L818 516L682 519Z" fill="#00101c" stroke="#00101c"></path><path d="M900 199L900 78L832 199Z" fill="#246688" stroke="#246688"></path><path d="M724 600L785 600L818 516Z" fill="#081a28" stroke="#081a28"></path><path d="M900 478L900 436L818 516Z" fill="#081a28" stroke="#081a28"></path><path d="M818 516L900 436L802 377Z" fill="#15384f" stroke="#15384f"></path><path d="M0 136L77 235L121 128Z" fill="#00101c" stroke="#00101c"></path><path d="M77 235L0 331L99 307Z" fill="#15384f" stroke="#15384f"></path><path d="M113 432L0 532L122 463Z" fill="#205a7a" stroke="#205a7a"></path><path d="M0 216L0 331L77 235Z" fill="#277297" stroke="#277297"></path><path d="M122 463L107 600L168 535Z" fill="#246688" stroke="#246688"></path><path d="M168 535L107 600L213 600Z" fill="#246688" stroke="#246688"></path><path d="M0 0L0 136L121 128Z" fill="#19435d" stroke="#19435d"></path><path d="M900 600L900 478L818 516Z" fill="#081a28" stroke="#081a28"></path><path d="M0 331L0 399L99 307Z" fill="#297ea6" stroke="#297ea6"></path><path d="M0 532L107 600L122 463Z" fill="#081a28" stroke="#081a28"></path><path d="M900 78L900 0L814 0Z" fill="#1d4e6b" stroke="#1d4e6b"></path><path d="M129 0L0 0L121 128Z" fill="#246688" stroke="#246688"></path><path d="M0 399L0 532L113 432Z" fill="#1d4e6b" stroke="#1d4e6b"></path><path d="M785 600L900 600L818 516Z" fill="#112e42" stroke="#112e42"></path><path d="M0 532L0 600L107 600Z" fill="#1d4e6b" stroke="#1d4e6b"></path></g></svg>